{"title":"The Twilight Saga Breaking Dawn Part 1 2011 TS NEW FULL LINE XVi","uid":6868504,"size":1505000763,"categoryP":"video","categoryS":"movies","magnet":"?xt=urn:btih:98b7a9d9b1bca32864b1d86929c5ca4327ff96ed&amp;dn=The+Twilight+Saga+Breaking+Dawn+Part+1+2011+TS+NEW+FULL+LINE+XVi&amp;tr=udp%3A%2F%2Ftracker.openbittorrent.com%3A80&amp;tr=udp%3A%2F%2Fopen.demonii.com%3A1337&amp;tr=udp%3A%2F%2Ftracker.coppersurfer.tk%3A6969&amp;tr=udp%3A%2F%2Fexodus.desync.com%3A6969","seeders":1,"leechers":0,"uploader":"sceneline","files":105,"time":1323193489,"description":"- &lt;a href=&quot;\nhttp://www.Speed.Cd&quot; rel=&quot;nofollow&quot; target=&quot;_NEW&quot;&gt;\nhttp://www.Speed.Cd&lt;/a&gt;      fast  and The Hottest Private Tracker on the net\n\n   signup is open now\n\nPlease Seed back to make the speed Faster!!!\n\n------------------nfo--------------------------\n-ooooo oooo   oooo oooooooo8 oooooooooo  o88   oooooooooo       o      ooooo       \n 888   8888o  88 888         888    888 oooo   888    888     888      888        \n 888   88 888o88  888oooooo  888oooo88   888   888oooo88     8  88     888        \n 888   88   8888         888 888         888   888  88o     8oooo88    888      o \no888o o88o    88 o88oooo888 o888o       o888o o888o  88o8 o88o  o888o o888ooooo88 \n\n \nTITLE: \n\nThe Twilight Saga Breaking Dawn Part 1 2011 TS NEW FULL LINE XViD - INSPiRAL\n\nIMDB: \n\nwww.imdb.com/title/tt1324999/\n\n\nSOURCES:\n\nVIDEO - TNZ 720p\nAUDIO - RiPLEGENDZ\nSUBS - OWN\n\nSTATS:\n\nVideo\nID                               : 0\nFormat                           : MPEG-4 Visual\nFormat profile                   : Advanced Simple@L5\nFormat settings, BVOP            : 2\nFormat settings, QPel            : No\nFormat settings, GMC             : No warppoints\nFormat settings, Matrix          : Default (H.263)\nMuxing mode                      : Packed bitstream\nCodec ID                         : XVID\nCodec ID/Hint                    : XviD\nDuration                         : 1h 47mn\nBit rate                         : 1 713 Kbps\nWidth                            : 720 pixels\nHeight                           : 304 pixels\nDisplay aspect ratio             : 2.35:1\nFrame rate                       : 25.000 fps\nColor space                      : YUV\nChroma subsampling               : 4:2:0\nBit depth                        : 8 bits\nScan type                        : Progressive\nCompression mode                 : Lossy\nBits/(Pixel*Frame)               : 0.313\nStream size                      : 1.28 GiB (93%)\nWriting library                  : XviD 64\n\nAudio\nID                               : 1\nFormat                           : MPEG Audio\nFormat version                   : Version 1\nFormat profile                   : Layer 3\nCodec ID                         : 55\nCodec ID/Hint                    : MP3\nDuration                         : 1h 47mn\nBit rate mode                    : Constant\nBit rate                         : 128 Kbps\nChannel(s)                       : 2 channels\nSampling rate                    : 44.1 KHz\nCompression mode                 : Lossy\nStream size                      : 98.0 MiB (7%)\nAlignment                        : Split accross interleaves\nInterleave, duration             : 40 ms (1.00 video frame)\nInterleave, preload duration     : 500 ms\n\n\nNOTES:\n\nOur first release and boy what a nice way too start .\nWe used the TNZ 720p avi file and gave it some TLC,then hardcoded some subs we made for\nthe non english parts.\nAudio we had to sync,filter and mux to our rip .....now enjoy a release with FULL line audio.\n\n\nSCREENS:\n\n[IMG]http://i.imgur.com/LakWE.png[/IMG]\n[IMG]http://i.imgur.com/PnwGQ.png[/IMG]\n[IMG]http://i.imgur.com/sehYb.png[/IMG]\n[IMG]http://i.imgur.com/EbhrR.png[/IMG]\n[IMG]http://i.imgur.com/jmD9B.png[/IMG]\n[IMG]http://i.imgur.com/sIFBH.png[/IMG]\n\n\nGREETZ: \n\nPast,Present and Future","torrent":{"xt":"urn:btih:98b7a9d9b1bca32864b1d86929c5ca4327ff96ed","amp;dn":"The+Twilight+Saga+Breaking+Dawn+Part+1+2011+TS+NEW+FULL+LINE+XVi","amp;tr":["udp%3A%2F%2Ftracker.openbittorrent.com%3A80","udp%3A%2F%2Fopen.demonii.com%3A1337","udp%3A%2F%2Ftracker.coppersurfer.tk%3A6969","udp%3A%2F%2Fexodus.desync.com%3A6969"],"infoHash":"98b7a9d9b1bca32864b1d86929c5ca4327ff96ed","infoHashBuffer":{"type":"Buffer","data":[152,183,169,217,177,188,163,40,100,177,216,105,41,197,202,67,39,255,150,237]},"announce":[],"urlList":[]}}